# xmcd
# 
# Track frame offsets:
#     150
#     22304
#     30865
#     42357
#     56339
# 
# Disc length: 944
# 
# Revision: 1
# Processed by: cddbd v1.5.2PL0 Copyright (c) Steve Scherf et al.
# Submitted via: fre:ac v1.0.17
# 
DISCID=3603ae05
DTITLE=My Heart Belongs To Cecilia Winter - My Heart Belongs To Cecilia Winter
DYEAR=2008
DGENRE=Alternative
TTITLE0=New Zealand
TTITLE1=Destroyer
TTITLE2=Country Boy
TTITLE3=My End
TTITLE4=Valley Or Mountain Chain
EXTD=
EXTT0=
EXTT1=
EXTT2=
EXTT3=
EXTT4=
PLAYORDER=
